<svg xmlns="http://www.w3.org/2000/svg" viewBox="0 0 828 798" role="img" aria-label="Concept floor plan of the mine dry facility: open dry area with clothing rack and drying rails on the left, two 7-foot hallways serving change rooms and bathrooms on the right, double-door entrance at the bottom, with two innovation zones marked."><rect width="828" height="798" fill="#FFFFFF"/><defs><pattern id="hatchOpen" width="26" height="26" patternUnits="userSpaceOnUse" patternTransform="rotate(45)"><line x1="0" y1="0" x2="0" y2="26" stroke="#C0C3C7" stroke-width="1.4"/></pattern><pattern id="hatchVoid" width="9" height="9" patternUnits="userSpaceOnUse" patternTransform="rotate(45)"><rect width="9" height="9" fill="#E4E7EA"/><line x1="0" y1="0" x2="0" y2="9" stroke="#A9AEB3" stroke-width="1"/></pattern><pattern id="hatchGrate" width="7" height="7" patternUnits="userSpaceOnUse" patternTransform="rotate(45)"><rect width="7" height="7" fill="#EDEFF1"/><line x1="0" y1="0" x2="0" y2="7" stroke="#8E949A" stroke-width="1"/></pattern><marker id="da" markerWidth="10" markerHeight="10" refX="1" refY="3" orient="auto"><path d="M7,0 L1,3 L7,6" fill="none" stroke="#1D2A36" stroke-width="1.2"/></marker><marker id="db" markerWidth="10" markerHeight="10" refX="6" refY="3" orient="auto"><path d="M0,0 L6,3 L0,6" fill="none" stroke="#1D2A36" stroke-width="1.2"/></marker><marker id="entry" markerWidth="9" markerHeight="9" refX="6" refY="3" orient="auto"><path d="M0,0 L6,3 L0,6" fill="#1B4F8A"/></marker></defs><rect x="30" y="30" width="768" height="672" fill="#F1F2F0" /><rect x="510" y="30" width="112" height="72" fill="#DFEAF0" /><rect x="622" y="102" width="176" height="112" fill="#EFE7D9" /><rect x="622" y="214" width="176" height="104" fill="#DFEAF0" /><rect x="622" y="386.8" width="176" height="123.2" fill="#EFE7D9" /><rect x="622" y="510" width="176" height="96" fill="#DFEAF0" /><rect x="510" y="649.2" width="112" height="52.8" fill="#DFEAF0" /><rect x="510" y="102" width="112" height="241.6" fill="#FBF0D2" /><rect x="510" y="386.8" width="112" height="262.4" fill="#F9E3ED" /><rect x="622" y="30" width="176" height="72" fill="url(#hatchVoid)" /><rect x="622" y="606" width="176" height="96" fill="url(#hatchVoid)" /><rect x="622" y="318" width="176" height="68.8" fill="url(#hatchVoid)" /><rect x="510" y="102" width="112" height="241.6" fill="none" stroke="#D9A421" stroke-width="2.5"/><rect x="510" y="386.8" width="112" height="262.4" fill="none" stroke="#CE6B96" stroke-width="2.5"/><path d="M 49.2 49.2 H 462 V 278 H 49.2 Z" fill="url(#hatchOpen)" opacity="0.55"/><rect x="17.2" y="17.2" width="793.6" height="12.8" fill="#4A5560" /><rect x="17.2" y="702" width="260.8" height="12.8" fill="#4A5560" /><rect x="414" y="702" width="396.8" height="12.8" fill="#4A5560" /><rect x="17.2" y="30" width="12.8" height="672" fill="#4A5560" /><rect x="798" y="30" width="12.8" height="672" fill="#4A5560" /><rect x="497.2" y="30" width="12.8" height="313.6" fill="#4A5560" /><rect x="497.2" y="386.8" width="12.8" height="315.2" fill="#4A5560" /><rect x="622" y="30" width="12.8" height="104" fill="#4A5560" /><rect x="622" y="182" width="12.8" height="59.2" fill="#4A5560" /><rect x="622" y="289.2" width="12.8" height="136" fill="#4A5560" /><rect x="622" y="473.2" width="12.8" height="60.8" fill="#4A5560" /><rect x="622" y="582" width="12.8" height="120" fill="#4A5560" /><rect x="510" y="95.6" width="32" height="12.8" fill="#4A5560" /><rect x="590" y="95.6" width="208" height="12.8" fill="#4A5560" /><rect x="622" y="207.6" width="176" height="12.8" fill="#4A5560" /><rect x="622" y="311.6" width="176" height="12.8" fill="#4A5560" /><rect x="622" y="380.4" width="176" height="12.8" fill="#4A5560" /><rect x="622" y="503.6" width="176" height="12.8" fill="#4A5560" /><rect x="622" y="599.6" width="176" height="12.8" fill="#4A5560" /><rect x="510" y="642.8" width="32" height="12.8" fill="#4A5560" /><rect x="590" y="642.8" width="32" height="12.8" fill="#4A5560" /><line x1="634.8" y1="134" x2="682.8" y2="134" stroke="#1D2A36" stroke-width="2"/><path d="M 682.8 134 A 48 48 0 0 1 634.8 182" fill="none" stroke="#838A90" stroke-width="1.1"/><line x1="634.8" y1="241.2" x2="682.8" y2="241.2" stroke="#1D2A36" stroke-width="2"/><path d="M 682.8 241.2 A 48 48 0 0 1 634.8 289.2" fill="none" stroke="#838A90" stroke-width="1.1"/><line x1="634.8" y1="425.2" x2="682.8" y2="425.2" stroke="#1D2A36" stroke-width="2"/><path d="M 682.8 425.2 A 48 48 0 0 1 634.8 473.2" fill="none" stroke="#838A90" stroke-width="1.1"/><line x1="634.8" y1="534" x2="682.8" y2="534" stroke="#1D2A36" stroke-width="2"/><path d="M 682.8 534 A 48 48 0 0 1 634.8 582" fill="none" stroke="#838A90" stroke-width="1.1"/><line x1="542" y1="95.6" x2="542" y2="47.6" stroke="#1D2A36" stroke-width="2"/><path d="M 542 47.6 A 48 48 0 0 1 590 95.6" fill="none" stroke="#838A90" stroke-width="1.1"/><line x1="542" y1="655.6" x2="542" y2="703.6" stroke="#1D2A36" stroke-width="2"/><path d="M 542 703.6 A 48 48 0 0 1 494 655.6" fill="none" stroke="#838A90" stroke-width="1.1"/><line x1="278" y1="702" x2="278" y2="634" stroke="#1D2A36" stroke-width="2"/><path d="M 278 634 A 68 68 0 0 1 346 702" fill="none" stroke="#838A90" stroke-width="1.1"/><line x1="414" y1="702" x2="414" y2="634" stroke="#1D2A36" stroke-width="2"/><path d="M 414 634 A 68 68 0 0 1 482 702" fill="none" stroke="#838A90" stroke-width="1.1"/><rect x="110" y="81.2" width="120" height="80" fill="#F1F2F0" rx="6"/><rect x="106.8" y="594.8" width="57.6" height="105.6" fill="#F1F2F0" rx="6"/><rect x="273.2" y="658.8" width="137.6" height="27.2" fill="#3A4048" rx="3"/><rect x="42.8" y="343.6" width="35.2" height="345.6" fill="#F26A1B" stroke="#C24F0A" stroke-width="1.5"/><rect x="84.4" y="305.2" width="60.8" height="36.8" fill="url(#hatchGrate)" stroke="#8E949A" stroke-width="1"/><rect x="145.2" y="305.2" width="94.4" height="36.8" fill="#F9BC98" stroke="#C24F0A" stroke-width="1.2"/><line x1="160.9" y1="305.2" x2="160.9" y2="342" stroke="#C24F0A" stroke-width="1"/><line x1="176.7" y1="305.2" x2="176.7" y2="342" stroke="#C24F0A" stroke-width="1"/><line x1="192.4" y1="305.2" x2="192.4" y2="342" stroke="#C24F0A" stroke-width="1"/><line x1="208.1" y1="305.2" x2="208.1" y2="342" stroke="#C24F0A" stroke-width="1"/><line x1="223.9" y1="305.2" x2="223.9" y2="342" stroke="#C24F0A" stroke-width="1"/><line x1="145.2" y1="323.6" x2="239.6" y2="323.6" stroke="#C24F0A" stroke-width="1"/><rect x="239.6" y="305.2" width="62.4" height="36.8" fill="#DF9FBB" stroke="#CE6B96" stroke-width="1.5"/><rect x="153.2" y="494" width="57.6" height="19.2" fill="#C89B62" stroke="#8C6C45" stroke-width="1.2"/><line x1="295.6" y1="359.6" x2="295.6" y2="638" stroke="#1D2A36" stroke-width="2.4"/><circle cx="295.6" cy="359.6" r="3" fill="#1D2A36"/><circle cx="295.6" cy="638" r="3" fill="#1D2A36"/><line x1="345.2" y1="359.6" x2="345.2" y2="638" stroke="#1D2A36" stroke-width="2.4"/><circle cx="345.2" cy="359.6" r="3" fill="#1D2A36"/><circle cx="345.2" cy="638" r="3" fill="#1D2A36"/><line x1="393.2" y1="359.6" x2="393.2" y2="638" stroke="#1D2A36" stroke-width="2.4"/><circle cx="393.2" cy="359.6" r="3" fill="#1D2A36"/><circle cx="393.2" cy="638" r="3" fill="#1D2A36"/><line x1="441.2" y1="359.6" x2="441.2" y2="638" stroke="#1D2A36" stroke-width="2.4"/><circle cx="441.2" cy="359.6" r="3" fill="#1D2A36"/><circle cx="441.2" cy="638" r="3" fill="#1D2A36"/><line x1="489.2" y1="359.6" x2="489.2" y2="638" stroke="#1D2A36" stroke-width="2.4"/><circle cx="489.2" cy="359.6" r="3" fill="#1D2A36"/><circle cx="489.2" cy="638" r="3" fill="#1D2A36"/><rect x="516.4" y="174" width="32" height="56" fill="#1B4F8A" rx="2"/><rect x="110" y="81.2" width="120" height="80" fill="none" stroke="#1B4F8A" stroke-width="2" stroke-dasharray="7 5" rx="6"/><rect x="106.8" y="594.8" width="57.6" height="105.6" fill="none" stroke="#1B4F8A" stroke-width="2" stroke-dasharray="7 5" rx="6"/><rect x="126" y="94" width="76.8" height="8.8" fill="#143B68" /><rect x="142" y="129.2" width="16" height="16" fill="#98B0CA" rx="4"/><rect x="182" y="129.2" width="16" height="16" fill="#98B0CA" rx="4"/><rect x="126" y="609.2" width="19.2" height="40" fill="#16697A" rx="2"/><rect x="126" y="654" width="19.2" height="35.2" fill="#16697A" rx="2"/><circle cx="221.2" cy="93.2" r="12" fill="#1B4F8A" stroke="#FFFFFF" stroke-width="2.5"/><text x="221.2" y="97.7" font-family="-apple-system,'Segoe UI',system-ui,Roboto,'Helvetica Neue',Arial,sans-serif" font-size="13.5" font-weight="700" fill="#FFFFFF" text-anchor="middle">1</text><circle cx="153.2" cy="609.2" r="12" fill="#1B4F8A" stroke="#FFFFFF" stroke-width="2.5"/><text x="153.2" y="613.7" font-family="-apple-system,'Segoe UI',system-ui,Roboto,'Helvetica Neue',Arial,sans-serif" font-size="13.5" font-weight="700" fill="#FFFFFF" text-anchor="middle">2</text><text x="254" y="193.2" font-family="ui-monospace,'Cascadia Mono','Segoe UI Mono',Menlo,Consolas,monospace" font-size="13.5" font-weight="600" letter-spacing="0.08em" fill="#565F68" text-anchor="middle" paint-order="stroke" stroke="#FFFFFF" stroke-width="3.5" stroke-linejoin="round" >OPEN TO BUILDING</text><text x="60.4" y="518" font-family="ui-monospace,'Cascadia Mono','Segoe UI Mono',Menlo,Consolas,monospace" font-size="11.5" font-weight="600" letter-spacing="0.08em" fill="#FFFFFF" text-anchor="middle"  transform="rotate(-90 60.4 518)">CLOTHING RACK</text><text x="192.4" y="290.8" font-family="ui-monospace,'Cascadia Mono','Segoe UI Mono',Menlo,Consolas,monospace" font-size="10.5" font-weight="600" letter-spacing="0.08em" fill="#1D2A36" text-anchor="middle" paint-order="stroke" stroke="#FFFFFF" stroke-width="3.5" stroke-linejoin="round" >BOOT CUBBIES</text><text x="270.8" y="327.6" font-family="ui-monospace,'Cascadia Mono','Segoe UI Mono',Menlo,Consolas,monospace" font-size="10.5" font-weight="600" letter-spacing="0.08em" fill="#1D2A36" text-anchor="middle" paint-order="stroke" stroke="#FFFFFF" stroke-width="3.5" stroke-linejoin="round" >2 FT</text><text x="182" y="481.2" font-family="ui-monospace,'Cascadia Mono','Segoe UI Mono',Menlo,Consolas,monospace" font-size="10.5" font-weight="600" letter-spacing="0.08em" fill="#1D2A36" text-anchor="middle" paint-order="stroke" stroke="#FFFFFF" stroke-width="3.5" stroke-linejoin="round" >BENCH</text><text x="369.2" y="508.4" font-family="ui-monospace,'Cascadia Mono','Segoe UI Mono',Menlo,Consolas,monospace" font-size="11.5" font-weight="600" letter-spacing="0.08em" fill="#1D2A36" text-anchor="middle" paint-order="stroke" stroke="#FFFFFF" stroke-width="3.5" stroke-linejoin="round"  transform="rotate(-90 369.2 508.4)">DRYING RAILS</text><text x="532.4" y="204.4" font-family="ui-monospace,'Cascadia Mono','Segoe UI Mono',Menlo,Consolas,monospace" font-size="10" font-weight="600" letter-spacing="0.08em" fill="#FFFFFF" text-anchor="middle"  transform="rotate(-90 532.4 204.4)">VENDING</text><text x="566" y="70" font-family="ui-monospace,'Cascadia Mono','Segoe UI Mono',Menlo,Consolas,monospace" font-size="11" font-weight="600" letter-spacing="0.08em" fill="#1D2A36" text-anchor="middle" paint-order="stroke" stroke="#FFFFFF" stroke-width="3.5" stroke-linejoin="round" >BATHROOM</text><text x="566" y="257.2" font-family="ui-monospace,'Cascadia Mono','Segoe UI Mono',Menlo,Consolas,monospace" font-size="11.5" font-weight="600" letter-spacing="0.08em" fill="#1D2A36" text-anchor="middle" paint-order="stroke" stroke="#FFFFFF" stroke-width="3.5" stroke-linejoin="round" >HALLWAY</text><text x="566" y="276.4" font-family="ui-monospace,'Cascadia Mono','Segoe UI Mono',Menlo,Consolas,monospace" font-size="10.5" font-weight="600" letter-spacing="0.08em" fill="#1D2A36" text-anchor="middle" paint-order="stroke" stroke="#FFFFFF" stroke-width="3.5" stroke-linejoin="round" >7 FT WIDE</text><line x1="510" y1="314.8" x2="622" y2="314.8" stroke="#1D2A36" stroke-width="1.2" marker-start="url(#da)" marker-end="url(#db)"/><text x="566" y="307.6" font-family="ui-monospace,'Cascadia Mono','Segoe UI Mono',Menlo,Consolas,monospace" font-size="11.5" font-weight="600" letter-spacing="0.08em" fill="#1D2A36" text-anchor="middle" paint-order="stroke" stroke="#FFFFFF" stroke-width="3.5" stroke-linejoin="round" >7 FT</text><text x="710" y="161.2" font-family="ui-monospace,'Cascadia Mono','Segoe UI Mono',Menlo,Consolas,monospace" font-size="11" font-weight="600" letter-spacing="0.08em" fill="#1D2A36" text-anchor="middle" paint-order="stroke" stroke="#FFFFFF" stroke-width="3.5" stroke-linejoin="round" >CHANGE ROOM</text><text x="710" y="270" font-family="ui-monospace,'Cascadia Mono','Segoe UI Mono',Menlo,Consolas,monospace" font-size="11" font-weight="600" letter-spacing="0.08em" fill="#1D2A36" text-anchor="middle" paint-order="stroke" stroke="#FFFFFF" stroke-width="3.5" stroke-linejoin="round" >BATHROOM</text><text x="566" y="506.8" font-family="ui-monospace,'Cascadia Mono','Segoe UI Mono',Menlo,Consolas,monospace" font-size="11.5" font-weight="600" letter-spacing="0.08em" fill="#1D2A36" text-anchor="middle" paint-order="stroke" stroke="#FFFFFF" stroke-width="3.5" stroke-linejoin="round" >HALLWAY</text><text x="566" y="526" font-family="ui-monospace,'Cascadia Mono','Segoe UI Mono',Menlo,Consolas,monospace" font-size="10.5" font-weight="600" letter-spacing="0.08em" fill="#1D2A36" text-anchor="middle" paint-order="stroke" stroke="#FFFFFF" stroke-width="3.5" stroke-linejoin="round" >7 FT WIDE</text><line x1="510" y1="615.6" x2="622" y2="615.6" stroke="#1D2A36" stroke-width="1.2" marker-start="url(#da)" marker-end="url(#db)"/><text x="566" y="608.4" font-family="ui-monospace,'Cascadia Mono','Segoe UI Mono',Menlo,Consolas,monospace" font-size="11.5" font-weight="600" letter-spacing="0.08em" fill="#1D2A36" text-anchor="middle" paint-order="stroke" stroke="#FFFFFF" stroke-width="3.5" stroke-linejoin="round" >7 FT</text><text x="710" y="452.4" font-family="ui-monospace,'Cascadia Mono','Segoe UI Mono',Menlo,Consolas,monospace" font-size="11" font-weight="600" letter-spacing="0.08em" fill="#1D2A36" text-anchor="middle" paint-order="stroke" stroke="#FFFFFF" stroke-width="3.5" stroke-linejoin="round" >CHANGE ROOM</text><text x="710" y="561.2" font-family="ui-monospace,'Cascadia Mono','Segoe UI Mono',Menlo,Consolas,monospace" font-size="11" font-weight="600" letter-spacing="0.08em" fill="#1D2A36" text-anchor="middle" paint-order="stroke" stroke="#FFFFFF" stroke-width="3.5" stroke-linejoin="round" >BATHROOM</text><text x="566" y="679.6" font-family="ui-monospace,'Cascadia Mono','Segoe UI Mono',Menlo,Consolas,monospace" font-size="11" font-weight="600" letter-spacing="0.08em" fill="#1D2A36" text-anchor="middle" paint-order="stroke" stroke="#FFFFFF" stroke-width="3.5" stroke-linejoin="round" >BATHROOM</text><text x="170" y="151.6" font-family="ui-monospace,'Cascadia Mono','Segoe UI Mono',Menlo,Consolas,monospace" font-size="10.5" font-weight="600" letter-spacing="0.08em" fill="#1B4F8A" text-anchor="middle" paint-order="stroke" stroke="#FFFFFF" stroke-width="3.5" stroke-linejoin="round" >TV INNOVATION HUB</text><text x="135.6" y="583.6" font-family="ui-monospace,'Cascadia Mono','Segoe UI Mono',Menlo,Consolas,monospace" font-size="10.5" font-weight="600" letter-spacing="0.08em" fill="#1B4F8A" text-anchor="middle" paint-order="stroke" stroke="#FFFFFF" stroke-width="3.5" stroke-linejoin="round" >MICRO-MARKET</text><line x1="346" y1="727.6" x2="346" y2="666.8" stroke="#1B4F8A" stroke-width="2.2" marker-end="url(#entry)"/><text x="362" y="732.4" font-family="ui-monospace,'Cascadia Mono','Segoe UI Mono',Menlo,Consolas,monospace" font-size="11.5" font-weight="600" letter-spacing="0.08em" fill="#1B4F8A" text-anchor="start" paint-order="stroke" stroke="#FFFFFF" stroke-width="3.5" stroke-linejoin="round" >MAIN ENTRY — DOUBLE DOORS · SAFETY MATS</text><rect x="30" y="758" width="14" height="14" fill="#EFE7D9" stroke="#777F86" stroke-width="1" rx="2"/><text x="50" y="769.5" font-family="ui-monospace,'Cascadia Mono','Segoe UI Mono',Menlo,Consolas,monospace" font-size="10.5" letter-spacing="0.04em" fill="#1D2A36">CHANGE ROOM</text><rect x="135.9" y="758" width="14" height="14" fill="#DFEAF0" stroke="#777F86" stroke-width="1" rx="2"/><text x="155.9" y="769.5" font-family="ui-monospace,'Cascadia Mono','Segoe UI Mono',Menlo,Consolas,monospace" font-size="10.5" letter-spacing="0.04em" fill="#1D2A36">BATHROOM</text><rect x="221.10000000000002" y="758" width="14" height="14" fill="#FBF0D2" stroke="#777F86" stroke-width="1" rx="2"/><text x="241.10000000000002" y="769.5" font-family="ui-monospace,'Cascadia Mono','Segoe UI Mono',Menlo,Consolas,monospace" font-size="10.5" letter-spacing="0.04em" fill="#1D2A36">UNIT A</text><rect x="292.5" y="758" width="14" height="14" fill="#F9E3ED" stroke="#777F86" stroke-width="1" rx="2"/><text x="312.5" y="769.5" font-family="ui-monospace,'Cascadia Mono','Segoe UI Mono',Menlo,Consolas,monospace" font-size="10.5" letter-spacing="0.04em" fill="#1D2A36">UNIT B</text><rect x="363.9" y="758" width="14" height="14" fill="#F26A1B" stroke="#777F86" stroke-width="1" rx="2"/><text x="383.9" y="769.5" font-family="ui-monospace,'Cascadia Mono','Segoe UI Mono',Menlo,Consolas,monospace" font-size="10.5" letter-spacing="0.04em" fill="#1D2A36">EXISTING FEATURE</text><rect x="504.29999999999995" y="758" width="14" height="14" fill="#1B4F8A" stroke="#777F86" stroke-width="1" rx="2"/><text x="524.3" y="769.5" font-family="ui-monospace,'Cascadia Mono','Segoe UI Mono',Menlo,Consolas,monospace" font-size="10.5" letter-spacing="0.04em" fill="#1D2A36">CI INNOVATION</text><text x="798" y="791" font-family="ui-monospace,'Cascadia Mono','Segoe UI Mono',Menlo,Consolas,monospace" font-size="10.5" letter-spacing="0.06em" fill="#6C757C" text-anchor="end">SK-01 · CONCEPT FLOOR PLAN · DIMENSIONS APPROX. · NOT FOR CONSTRUCTION</text></svg>